REM MD5 e1786939ae5d6fff2e7f4029c1864109
FILE "Roswell Conspiracies - Aliens, Myths & Legends (USA).bin" BINARY
  TRACK 01 MODE2/2352
    INDEX 01 00:00:00
  TRACK 02 AUDIO
    INDEX 00 07:14:17
    INDEX 01 07:16:17
  TRACK 03 AUDIO
    INDEX 00 07:57:08
    INDEX 01 07:59:08
REM LEADOUT 63:08:08
